<svg width="527" height="436" viewBox="0 0 527 436" fill="none" xmlns="http://www.w3.org/2000/svg">
<path d="M306 298C306 329.927 295.17 360.866 275.356 385.546C255.542 410.226 227.97 427.12 197.337 433.348C166.704 439.577 134.906 434.755 107.361 419.705C79.8164 404.655 58.2286 380.307 46.2763 350.81C34.3239 321.314 32.7466 288.493 41.8131 257.941C50.8795 227.388 70.0287 200.995 95.998 183.257C121.967 165.519 153.15 157.535 184.232 160.665C215.315 163.794 244.374 177.843 266.459 200.419L238.725 228.77C223.056 212.753 202.44 202.786 180.388 200.565C158.336 198.345 136.213 204.01 117.789 216.594C99.3645 229.178 85.7788 247.904 79.3465 269.579C72.9142 291.255 74.0332 314.54 82.513 335.467C90.9927 356.394 106.309 373.668 125.851 384.345C145.393 395.023 167.952 398.444 189.685 394.025C211.418 389.606 230.98 377.62 245.037 360.111C259.094 342.601 266.778 320.651 266.778 298H306Z" fill="#FF4D4D"/>
<path d="M227.642 209.99C228.022 178.065 239.219 147.257 259.325 122.815C279.431 98.3723 307.202 81.808 337.907 75.9442C368.612 70.0805 400.35 75.28 427.714 90.657C455.078 106.034 476.375 130.637 487.975 160.274C499.576 189.911 500.763 222.748 491.333 253.19C481.904 283.632 462.442 309.796 436.264 327.223C410.085 344.651 378.81 352.264 347.767 348.765C316.724 345.266 287.834 330.871 266.019 308.035L294.088 280.016C309.565 296.218 330.062 306.43 352.086 308.912C374.11 311.395 396.299 305.994 414.871 293.63C433.444 281.265 447.251 262.703 453.941 241.105C460.631 219.508 459.789 196.211 451.559 175.185C443.329 154.158 428.219 136.704 408.806 125.794C389.392 114.885 366.875 111.196 345.091 115.356C323.307 119.516 303.604 131.268 289.339 148.609C275.075 165.95 267.131 187.807 266.861 210.457L227.642 209.99Z" fill="#BDB3A3"/>
<g opacity="0.45" filter="url(#filter0_d_1_72)">
<path d="M126.752 322.594C126.261 322.604 125.831 322.433 125.46 322.078L118.92 315.821C118.571 315.487 118.391 315.065 118.38 314.553L117.636 280.929C117.624 280.396 117.885 280.123 118.418 280.111L129.743 279.861C130.277 279.849 130.549 280.11 130.561 280.643L131.166 307.996L134.493 307.923L133.888 280.569C133.876 280.036 134.137 279.764 134.67 279.752L145.995 279.501C146.529 279.49 146.801 279.75 146.813 280.284L147.418 307.637L150.713 307.564L150.108 280.211C150.096 279.677 150.357 279.405 150.89 279.393L162.247 279.142C162.781 279.13 163.053 279.391 163.065 279.924L163.809 313.548C163.82 314.06 163.659 314.49 163.325 314.839L157.068 321.379C156.714 321.749 156.291 321.94 155.801 321.951L148.698 322.108C148.186 322.119 147.756 321.948 147.407 321.592L141.881 316.337L140.409 316.37L135.122 321.864C134.788 322.234 134.366 322.425 133.854 322.436L126.752 322.594ZM168.162 321.678C167.629 321.689 167.356 321.429 167.345 320.895L166.437 279.849C166.425 279.316 166.686 279.044 167.219 279.032L189.485 278.539C190.018 278.528 190.291 278.788 190.303 279.322L190.538 289.943C190.55 290.476 190.289 290.749 189.756 290.76L179.614 290.985L179.692 294.504L189.673 294.283C190.207 294.271 190.479 294.532 190.491 295.065L190.703 304.631C190.714 305.164 190.454 305.437 189.92 305.448L179.939 305.669L180.017 309.188L190.158 308.964C190.691 308.952 190.964 309.213 190.976 309.746L191.211 320.367C191.223 320.901 190.962 321.173 190.429 321.185L168.162 321.678ZM195.405 321.075C194.872 321.087 194.6 320.826 194.588 320.293L193.68 279.247C193.668 278.714 193.929 278.441 194.462 278.429L214.649 277.983C215.14 277.972 215.57 278.133 215.94 278.466L222.48 284.723C222.829 285.078 223.009 285.501 223.02 285.992L223.169 292.71C223.174 292.923 223.135 293.095 223.052 293.225C222.97 293.355 222.845 293.507 222.678 293.681L217.755 298.271L217.23 299.179L217.8 300.319L222.922 304.686C223.096 304.853 223.227 305 223.315 305.126C223.403 305.231 223.45 305.4 223.455 305.635L223.601 312.225C223.612 312.737 223.451 313.167 223.117 313.516L216.86 320.056C216.506 320.427 216.083 320.618 215.592 320.628L195.405 321.075ZM208.874 310.63C209.876 310.608 210.648 310.314 211.191 309.747C211.754 309.158 212.024 308.352 212.001 307.329C211.979 306.305 211.673 305.522 211.085 304.98C210.518 304.417 209.733 304.146 208.731 304.168C207.771 304.189 207.01 304.494 206.446 305.083C205.904 305.65 205.644 306.445 205.667 307.469C205.69 308.492 205.985 309.286 206.552 309.85C207.14 310.391 207.914 310.652 208.874 310.63ZM208.422 294.573C209.361 294.552 210.091 294.258 210.612 293.692C211.132 293.126 211.382 292.363 211.361 291.403C211.34 290.443 211.057 289.702 210.512 289.181C209.966 288.638 209.224 288.377 208.286 288.398C207.347 288.419 206.607 288.713 206.065 289.279C205.543 289.824 205.293 290.577 205.315 291.537C205.336 292.496 205.619 293.248 206.165 293.79C206.731 294.333 207.484 294.593 208.422 294.573Z" fill="white"/>
</g>
<g opacity="0.45" filter="url(#filter1_d_1_72)">
<path d="M254.907 274.615C254.39 274.746 254.066 274.552 253.936 274.035L243.881 234.23C243.75 233.713 243.943 233.389 244.46 233.258L264.037 228.313C264.513 228.193 264.969 228.254 265.404 228.496L273.176 233.134C273.596 233.402 273.866 233.773 273.986 234.249L275.632 240.764C275.684 240.971 275.685 241.147 275.633 241.292C275.582 241.437 275.494 241.613 275.371 241.821L271.597 247.395L271.289 248.397L272.098 249.38L278.067 252.493C278.274 252.617 278.435 252.731 278.549 252.834C278.658 252.916 278.741 253.071 278.798 253.299L280.413 259.69C280.538 260.186 280.477 260.642 280.23 261.056L275.592 268.829C275.329 269.269 274.96 269.55 274.484 269.67L254.907 274.615ZM265.702 261.426C266.674 261.18 267.361 260.721 267.763 260.047C268.18 259.347 268.263 258.501 268.013 257.508C267.762 256.516 267.289 255.821 266.595 255.424C265.916 255.002 265.091 254.913 264.119 255.159C263.188 255.394 262.514 255.861 262.096 256.561C261.694 257.234 261.619 258.067 261.87 259.06C262.12 260.053 262.585 260.761 263.264 261.183C263.958 261.58 264.771 261.661 265.702 261.426ZM261.674 245.874C262.584 245.645 263.23 245.195 263.611 244.527C263.993 243.859 264.066 243.059 263.831 242.128C263.595 241.198 263.154 240.539 262.506 240.152C261.853 239.745 261.072 239.657 260.162 239.887C259.252 240.116 258.596 240.568 258.194 241.242C257.807 241.89 257.732 242.679 257.967 243.61C258.202 244.54 258.646 245.209 259.299 245.616C259.972 246.018 260.764 246.104 261.674 245.874ZM286.478 266.64C285.961 266.771 285.637 266.578 285.506 266.061L277.277 233.484C277.147 232.967 277.34 232.643 277.857 232.512L285.396 230.608C285.748 230.519 286.134 230.609 286.553 230.877L288.745 232.237L290.268 229.773C290.495 229.452 290.784 229.247 291.136 229.158L293.618 228.531C294.135 228.4 294.459 228.594 294.59 229.111L297.121 239.132C297.205 239.463 297.231 239.698 297.2 239.838C297.185 239.952 297.1 240.094 296.945 240.265L292.209 245.687L296.645 263.247C296.775 263.764 296.582 264.088 296.065 264.219L286.478 266.64ZM312.762 260.001C312.287 260.121 311.829 260.05 311.388 259.787L303.616 255.149C303.201 254.902 302.931 254.53 302.806 254.033L298.213 235.853C298.088 235.356 298.149 234.901 298.396 234.486L303.034 226.714C303.297 226.273 303.666 225.993 304.142 225.873L313.573 223.49C314.049 223.37 314.507 223.441 314.948 223.704L322.72 228.342C323.135 228.589 323.405 228.961 323.53 229.457L328.122 247.638C328.248 248.135 328.187 248.59 327.94 249.005L323.302 256.777C323.039 257.218 322.67 257.498 322.194 257.618L312.762 260.001ZM314.761 248.967L315.133 248.873C315.568 248.763 315.87 248.566 316.04 248.281C316.225 247.97 316.261 247.587 316.146 247.132L313.23 235.591C313.115 235.136 312.905 234.826 312.599 234.661C312.309 234.47 311.947 234.43 311.513 234.539L311.14 234.633C310.685 234.748 310.386 234.956 310.242 235.257C310.092 235.536 310.075 235.904 310.19 236.359L313.105 247.9C313.22 248.355 313.412 248.681 313.682 248.877C313.967 249.047 314.327 249.077 314.761 248.967ZM341.303 252.791C340.828 252.911 340.37 252.84 339.929 252.577L332.157 247.94C331.742 247.692 331.472 247.32 331.347 246.824L324.936 221.445C324.805 220.928 324.999 220.604 325.516 220.474L335.103 218.052C335.62 217.921 335.943 218.114 336.074 218.632L341.748 241.094L344.696 240.35L339.022 217.887C338.891 217.37 339.084 217.046 339.601 216.916L349.219 214.486C349.736 214.355 350.06 214.549 350.191 215.066L355.865 237.528L358.812 236.784L353.138 214.321C353.008 213.804 353.201 213.48 353.718 213.35L363.305 210.928C363.822 210.797 364.146 210.991 364.276 211.508L370.687 236.886C370.812 237.383 370.751 237.838 370.504 238.253L365.866 246.025C365.604 246.466 365.234 246.746 364.759 246.866L358.771 248.379C358.295 248.499 357.837 248.428 357.396 248.165L352.15 245.035L351.53 245.191L348.399 250.438C348.136 250.878 347.767 251.158 347.291 251.279L341.303 252.791ZM376.551 243.888C376.034 244.018 375.71 243.825 375.58 243.308L373.863 236.513C373.743 236.037 373.82 235.688 374.094 235.465L379.569 230.484L379.224 229.119L372.032 227.305C371.68 227.218 371.442 226.926 371.316 226.43L368.707 216.098C368.665 215.933 368.646 215.773 368.651 215.617C368.671 215.436 368.756 215.25 368.906 215.058L374.292 208.549C374.41 208.409 374.544 208.287 374.694 208.183C374.839 208.058 375.004 207.973 375.19 207.926L384.498 205.574C385.015 205.444 385.339 205.637 385.47 206.154L387.147 212.794C387.215 213.063 387.249 213.285 387.249 213.461C387.27 213.632 387.191 213.795 387.01 213.95L382 218.549L382.352 219.946L388.907 221.59C389.3 221.667 389.554 221.933 389.669 222.388L392.185 232.347C392.316 232.864 392.244 233.322 391.971 233.721L387.184 240.773C386.921 241.125 386.541 241.364 386.045 241.489L376.551 243.888ZM409.953 235.45C409.808 235.487 409.648 235.505 409.472 235.506C409.296 235.506 409.105 235.488 408.898 235.453L402.616 234.366L396.35 233.209C395.915 233.143 395.609 232.758 395.431 232.055L390.502 212.54C390.376 212.044 390.437 211.588 390.685 211.174L395.322 203.401C395.585 202.961 395.954 202.681 396.43 202.56L405.924 200.162C406.4 200.042 406.858 200.113 407.298 200.376L415.071 205.014C415.485 205.261 415.755 205.633 415.881 206.129L419.094 218.85L405.132 222.377L405.501 223.967L408.653 224.425L415.25 224.409C415.509 224.387 415.711 224.666 415.858 225.245L417.731 232.66C417.861 233.177 417.668 233.501 417.151 233.632L409.953 235.45ZM405.296 216.229L405.42 216.198C406.247 215.989 406.815 215.581 407.124 214.975C407.428 214.349 407.462 213.57 407.227 212.639L407.18 212.453C406.945 211.522 406.548 210.863 405.988 210.477C405.428 210.09 404.735 210.001 403.907 210.21L403.752 210.249C402.987 210.443 402.45 210.842 402.141 211.448C401.853 212.049 401.826 212.815 402.061 213.746L402.108 213.932C402.343 214.863 402.733 215.535 403.277 215.947C403.816 216.339 404.489 216.433 405.296 216.229ZM426.456 231.281C425.939 231.412 425.615 231.219 425.485 230.702L417.256 198.125C417.125 197.608 417.318 197.284 417.835 197.153L425.375 195.249C425.726 195.16 426.112 195.25 426.532 195.518L428.724 196.878L430.247 194.414C430.473 194.093 430.763 193.888 431.114 193.799L433.596 193.172C434.113 193.042 434.437 193.235 434.568 193.752L437.099 203.773C437.183 204.104 437.209 204.339 437.179 204.479C437.163 204.593 437.078 204.736 436.923 204.907L432.187 210.328L436.623 227.888C436.753 228.405 436.56 228.729 436.043 228.86L426.456 231.281Z" fill="white"/>
</g>
<path d="M60.9524 120.377L158.435 160.895L52.8619 225.634L60.9524 120.377Z" fill="#FF8D8D"/>
<path d="M465.248 36.0728L475.575 141.134L368.649 78.6538L465.248 36.0728Z" fill="#876C6C"/>
<defs>
<filter id="filter0_d_1_72" x="113.618" y="277.802" width="114.164" height="52.973" filterUnits="userSpaceOnUse" color-interpolation-filters="sRGB">
<feFlood flood-opacity="0" result="BackgroundImageFix"/>
<feColorMatrix in="SourceAlpha" type="matrix" values="0 0 0 0 0 0 0 0 0 0 0 0 0 0 0 0 0 0 127 0" result="hardAlpha"/>
<feOffset dy="4"/>
<feGaussianBlur stdDeviation="2"/>
<feComposite in2="hardAlpha" operator="out"/>
<feColorMatrix type="matrix" values="0 0 0 0 0.966346 0 0 0 0 0.209065 0 0 0 0 0.209065 0 0 0 0.25 0"/>
<feBlend mode="normal" in2="BackgroundImageFix" result="effect1_dropShadow_1_72"/>
<feBlend mode="normal" in="SourceGraphic" in2="effect1_dropShadow_1_72" result="shape"/>
</filter>
<filter id="filter1_d_1_72" x="239.685" y="185.747" width="207.308" height="97.0637" filterUnits="userSpaceOnUse" color-interpolation-filters="sRGB">
<feFlood flood-opacity="0" result="BackgroundImageFix"/>
<feColorMatrix in="SourceAlpha" type="matrix" values="0 0 0 0 0 0 0 0 0 0 0 0 0 0 0 0 0 0 127 0" result="hardAlpha"/>
<feOffset dy="4"/>
<feGaussianBlur stdDeviation="2"/>
<feComposite in2="hardAlpha" operator="out"/>
<feColorMatrix type="matrix" values="0 0 0 0 0.966346 0 0 0 0 0.209065 0 0 0 0 0.209065 0 0 0 0.25 0"/>
<feBlend mode="normal" in2="BackgroundImageFix" result="effect1_dropShadow_1_72"/>
<feBlend mode="normal" in="SourceGraphic" in2="effect1_dropShadow_1_72" result="shape"/>
</filter>
</defs>
</svg>
